<svg class="css-ze2te4 css-qd6ojx" viewBox="0 0 76.08695652173914 67.49649368863956"><g transform="translate(-0.6136044880785414, -4.908835904628331) scale(1.2272089761570828)" class="css-6dhg35" fill="#35d0ba"><g xmlns="http://www.w3.org/2000/svg"><path d="M57.5,22.3c-0.3-4.8-4.1-8.7-8.9-9.3C46.6,7.6,41.4,4,35.5,4C30.1,4,25.3,7,23,11.7C16.2,7.5,3.3,11.1,3.5,23.8   c-1.9,1.9-3,4.5-3,7.2c0,5.5,4.5,10,10,10h3v-2h-3c-4.4,0-8-3.6-8-8c0-4.1,3.1-6.3,3.1-6.3c-1.5-9.6,9.7-16.8,18.3-9.9   c0,0,2.4-8.8,11.6-8.8c9.3,0,11.6,9,11.6,9c3.2-0.3,8.6,2.3,8.4,8.6c0,0,5,2,5,7.4c0,4.4-3.6,8-8,8h-4v2h4c5.5,0,10-4.5,10-10   C62.5,27.4,60.6,24.1,57.5,22.3z"></path><path d="M7.5,23h2c0-3.9,3.1-7,7-7v-2C11.5,14,7.5,18,7.5,23z"></path><path d="M51.5,22h-7.9l-1.3,10.2h-3.8v2h3.6L40.5,47H18.4l-1.8-14h1.9v-2h-4.1l2.3,18h23.6l-0.6,5h-2.3c-0.4-1.7-2-3-3.9-3   s-3.4,1.3-3.9,3h-2.3c-0.4-1.7-2-3-3.9-3s-3.4,1.3-3.9,3h-3.1v2h3.1c0.4,1.7,2,3,3.9,3s3.4-1.3,3.9-3h2.3c0.4,1.7,2,3,3.9,3   s3.4-1.3,3.9-3h4l4-32h6.1V22z M23.5,57c-1.1,0-2-0.9-2-2s0.9-2,2-2s2,0.9,2,2S24.6,57,23.5,57z M33.5,57c-1.1,0-2-0.9-2-2   s0.9-2,2-2s2,0.9,2,2S34.6,57,33.5,57z"></path><rect x="19.5" y="28" width="2" height="8"></rect><rect x="23.5" y="23" width="2" height="13"></rect><rect x="27.5" y="26" width="2" height="10"></rect><rect x="31.5" y="20" width="2" height="16"></rect><rect x="35.5" y="17" width="2" height="19"></rect></g></g></svg>